<svg xmlns="http://www.w3.org/2000/svg" width="640" height="360" viewBox="0 0 640 360" role="img" aria-labelledby="title desc">
  <title id="title">DGE Ernährungsteller</title>
  <desc id="desc">Tellerdiagramm mit Gemüse, Vollkorn und Eiweiß.</desc>
  <rect width="640" height="360" fill="#f8fafc" />
  <text x="40" y="48" font-family="Arial, sans-serif" font-size="20" fill="#1f2937" font-weight="700">DGE-Ernährungsteller</text>
  <circle cx="320" cy="200" r="120" fill="#f1f5f9" stroke="#cbd5f5" stroke-width="2" />
  <path d="M320 200 L320 80 A120 120 0 0 1 432 140 Z" fill="#bbf7d0" />
  <path d="M320 200 L432 140 A120 120 0 0 1 432 260 Z" fill="#fde68a" />
  <path d="M320 200 L432 260 A120 120 0 0 1 320 320 Z" fill="#bfdbfe" />
  <path d="M320 200 L320 320 A120 120 0 0 1 200 260 Z" fill="#fecaca" />
  <path d="M320 200 L200 260 A120 120 0 0 1 200 140 Z" fill="#e9d5ff" />
  <path d="M320 200 L200 140 A120 120 0 0 1 320 80 Z" fill="#fed7aa" />
  <text x="450" y="130" font-family="Arial, sans-serif" font-size="12" fill="#166534">Gemüse/Obst</text>
  <text x="450" y="205" font-family="Arial, sans-serif" font-size="12" fill="#92400e">Vollkorn</text>
  <text x="450" y="275" font-family="Arial, sans-serif" font-size="12" fill="#1d4ed8">Eiweiß</text>
  <text x="160" y="285" font-family="Arial, sans-serif" font-size="12" fill="#b91c1c">Fette sparsam</text>
  <text x="150" y="205" font-family="Arial, sans-serif" font-size="12" fill="#6b21a8">Milchprodukte</text>
  <text x="160" y="130" font-family="Arial, sans-serif" font-size="12" fill="#9a3412">Getränke</text>
</svg>
